<mxfile host="65bd71144e">
    <diagram id="JlPiPt_g534BvYDW2cDa" name="Page-1">
        <mxGraphModel dx="959" dy="1734" grid="1" gridSize="10" guides="1" tooltips="1" connect="1" arrows="1" fold="1" page="1" pageScale="1" pageWidth="850" pageHeight="1100" math="0" shadow="0">
            <root>
                <mxCell id="0"/>
                <mxCell id="1" parent="0"/>
                <mxCell id="40" value="" style="rounded=0;whiteSpace=wrap;html=1;fillColor=#FFFFFF;" parent="1" vertex="1">
                    <mxGeometry x="60" y="570" width="710" height="280" as="geometry"/>
                </mxCell>
                <mxCell id="9" value="" style="edgeStyle=none;shape=flexArrow;html=1;" parent="1" source="2" target="7" edge="1">
                    <mxGeometry relative="1" as="geometry"/>
                </mxCell>
                <mxCell id="29" value="" style="edgeStyle=none;html=1;" parent="1" source="2" target="3" edge="1">
                    <mxGeometry relative="1" as="geometry"/>
                </mxCell>
                <mxCell id="2" value="App" style="rounded=0;whiteSpace=wrap;html=1;" parent="1" vertex="1">
                    <mxGeometry x="20" y="-45" width="120" height="60" as="geometry"/>
                </mxCell>
                <mxCell id="11" value="" style="edgeStyle=none;shape=flexArrow;html=1;" parent="1" source="3" target="6" edge="1">
                    <mxGeometry relative="1" as="geometry"/>
                </mxCell>
                <mxCell id="13" value="" style="edgeStyle=none;shape=flexArrow;html=1;" parent="1" source="3" target="12" edge="1">
                    <mxGeometry relative="1" as="geometry"/>
                </mxCell>
                <mxCell id="3" value="Dashboard&lt;br&gt;&lt;font style=&quot;font-size: 12px&quot;&gt;(Renders a scrollable table that displays two dropdowns that list all capital cities. First drop down is labeled From city. Second is To City. The table would render initially all flights from the city selected in the first&amp;nbsp; dropdown. Two Links in each row that render the flight details or Location details based on the button clicked&lt;/font&gt;" style="rounded=0;whiteSpace=wrap;html=1;" parent="1" vertex="1">
                    <mxGeometry x="190" y="-130" width="230" height="230" as="geometry"/>
                </mxCell>
                <mxCell id="5" value="Tooltip" style="rounded=1;whiteSpace=wrap;html=1;" parent="1" vertex="1">
                    <mxGeometry x="220" y="300" width="120" height="60" as="geometry"/>
                </mxCell>
                <mxCell id="6" value="FlightDetails" style="rounded=1;whiteSpace=wrap;html=1;" parent="1" vertex="1">
                    <mxGeometry x="460" y="-45" width="120" height="60" as="geometry"/>
                </mxCell>
                <mxCell id="10" value="" style="edgeStyle=none;shape=flexArrow;html=1;" parent="1" source="7" target="5" edge="1">
                    <mxGeometry relative="1" as="geometry"/>
                </mxCell>
                <mxCell id="7" value="Map" style="rounded=0;whiteSpace=wrap;html=1;" parent="1" vertex="1">
                    <mxGeometry y="290" width="160" height="80" as="geometry"/>
                </mxCell>
                <mxCell id="12" value="Locations" style="rounded=1;whiteSpace=wrap;html=1;" parent="1" vertex="1">
                    <mxGeometry x="245" y="150" width="120" height="60" as="geometry"/>
                </mxCell>
                <mxCell id="14" value="- Wikipedia link&lt;br&gt;- Places of Interest - link?&lt;br&gt;- haveTraveled (bool) display icon&lt;br&gt;- onSavedList (bool) display icon" style="text;html=1;strokeColor=none;fillColor=none;align=left;verticalAlign=middle;whiteSpace=wrap;rounded=0;" parent="1" vertex="1">
                    <mxGeometry x="220" y="370" width="200" height="60" as="geometry"/>
                </mxCell>
                <mxCell id="15" value="- API return from scratch project - visual render&lt;br&gt;- Custom render modifications?&lt;br&gt;&amp;nbsp; &amp;nbsp;1.&amp;nbsp;(COVID-19 risk area highlights)&lt;br&gt;&amp;nbsp; &amp;nbsp;2. - haveTraveled (bool) display icon&lt;br&gt;- onSavedList (bool) display icon (star?)" style="text;html=1;strokeColor=none;fillColor=none;align=left;verticalAlign=middle;whiteSpace=wrap;rounded=0;" parent="1" vertex="1">
                    <mxGeometry x="10" y="380" width="150" height="100" as="geometry"/>
                </mxCell>
                <mxCell id="16" value="Contains further Flight Details. Back button to return to the table. SHould not reset data in the Map&amp;nbsp;" style="text;html=1;strokeColor=none;fillColor=none;align=left;verticalAlign=middle;whiteSpace=wrap;rounded=0;" parent="1" vertex="1">
                    <mxGeometry x="440" y="45" width="200" height="60" as="geometry"/>
                </mxCell>
                <mxCell id="17" value="- Places of Interest&lt;br&gt;- Other?&lt;br&gt;- Wikipedia link" style="text;html=1;strokeColor=none;fillColor=none;align=left;verticalAlign=middle;whiteSpace=wrap;rounded=0;" parent="1" vertex="1">
                    <mxGeometry x="246" y="197" width="160" height="80" as="geometry"/>
                </mxCell>
                <mxCell id="19" value="" style="rounded=0;whiteSpace=wrap;html=1;" parent="1" vertex="1">
                    <mxGeometry x="450" y="190" width="380" height="250" as="geometry"/>
                </mxCell>
                <mxCell id="20" value="DASHBOARD" style="rounded=0;whiteSpace=wrap;html=1;" parent="1" vertex="1">
                    <mxGeometry x="470" y="320" width="330" height="90" as="geometry"/>
                </mxCell>
                <mxCell id="21" value="MAP" style="rounded=0;whiteSpace=wrap;html=1;" parent="1" vertex="1">
                    <mxGeometry x="470" y="220" width="330" height="100" as="geometry"/>
                </mxCell>
                <mxCell id="22" value="App" style="text;html=1;strokeColor=none;fillColor=none;align=center;verticalAlign=middle;whiteSpace=wrap;rounded=0;" parent="1" vertex="1">
                    <mxGeometry x="480" y="200" width="40" height="20" as="geometry"/>
                </mxCell>
                <mxCell id="24" value="" style="triangle;whiteSpace=wrap;html=1;direction=north;" parent="1" vertex="1">
                    <mxGeometry x="618" y="300" width="40" height="20" as="geometry"/>
                </mxCell>
                <mxCell id="25" value="" style="triangle;whiteSpace=wrap;html=1;direction=south;" parent="1" vertex="1">
                    <mxGeometry x="618" y="320" width="40" height="20" as="geometry"/>
                </mxCell>
                <mxCell id="27" value="State" style="text;html=1;strokeColor=none;fillColor=none;align=center;verticalAlign=middle;whiteSpace=wrap;rounded=0;" parent="1" vertex="1">
                    <mxGeometry x="440" y="460" width="40" height="20" as="geometry"/>
                </mxCell>
                <mxCell id="31" value="Departure City | Departure Time | Arrival City | Arrival Time | Flight Number | Carrier" style="text;html=1;align=center;verticalAlign=middle;resizable=0;points=[];autosize=1;strokeColor=none;fontColor=#0000FF;" parent="1" vertex="1">
                    <mxGeometry x="110" y="640" width="460" height="20" as="geometry"/>
                </mxCell>
                <mxCell id="32" value="BUTTON: Flight Details" style="rounded=1;whiteSpace=wrap;html=1;" parent="1" vertex="1">
                    <mxGeometry x="582.5" y="630" width="105" height="30" as="geometry"/>
                </mxCell>
                <mxCell id="33" value="BUTTON: Location&amp;nbsp; Details" style="rounded=1;whiteSpace=wrap;html=1;" parent="1" vertex="1">
                    <mxGeometry x="582.5" y="670" width="105" height="30" as="geometry"/>
                </mxCell>
                <mxCell id="34" value="FROM" style="rounded=1;whiteSpace=wrap;html=1;" parent="1" vertex="1">
                    <mxGeometry x="90" y="600" width="105" height="30" as="geometry"/>
                </mxCell>
                <mxCell id="35" value="TO" style="rounded=1;whiteSpace=wrap;html=1;" parent="1" vertex="1">
                    <mxGeometry x="215" y="600" width="105" height="30" as="geometry"/>
                </mxCell>
                <mxCell id="36" value="" style="triangle;whiteSpace=wrap;html=1;direction=south;fillColor=#0000FF;" parent="1" vertex="1">
                    <mxGeometry x="168" y="607" width="20" height="15" as="geometry"/>
                </mxCell>
                <mxCell id="37" value="" style="triangle;whiteSpace=wrap;html=1;direction=south;fillColor=#0000FF;" parent="1" vertex="1">
                    <mxGeometry x="295" y="607.5" width="20" height="15" as="geometry"/>
                </mxCell>
                <mxCell id="42" value="Text" style="text;html=1;align=center;verticalAlign=middle;resizable=0;points=[];autosize=1;strokeColor=none;" vertex="1" parent="1">
                    <mxGeometry x="60" y="870" width="40" height="20" as="geometry"/>
                </mxCell>
            </root>
        </mxGraphModel>
    </diagram>
</mxfile>